<svg width="159" height="158" viewBox="0 0 159 158" fill="none" xmlns="http://www.w3.org/2000/svg">
<rect width="158" height="158" transform="translate(0.746582)" fill="#FF7E21"/>
<path d="M37.5189 99.1754V71H33.4424L22.6841 95.058L11.9255 71H7.80705V100.105H11.6315V78.3606L21.3282 100.081L21.3391 100.105H24.0288L24.109 99.9253L33.6944 78.4026V99.3894L37.5189 99.1754Z" fill="#FFF9F3"/>
<path d="M40.4744 88.4968C40.4744 86.1415 40.9508 84.0804 41.9031 82.3139C42.8557 80.5195 44.1587 79.1317 45.8115 78.1501C47.4926 77.1688 49.3557 76.6781 51.401 76.6781C53.4181 76.6781 55.1693 77.1126 56.6542 77.9819C58.139 78.8512 59.2458 79.9448 59.9739 81.2627V77.0565H63.8404V97.8052H62.0275L59.9739 97.92V95.815C59.5145 96.6329 58.9149 97.3681 58.1759 98.0205L45.4409 98.7325C43.9628 97.7426 42.7835 96.4058 41.9031 94.7217C40.9508 92.8991 40.4744 90.8242 40.4744 88.4968ZM59.9739 88.5388C59.9739 86.8003 59.6238 85.2863 58.9236 83.9963C58.223 82.7067 57.2704 81.7251 56.0658 81.0522C54.8891 80.3514 53.5864 80.0006 52.1574 80.0006C50.7287 80.0006 49.4256 80.3372 48.2489 81.0101C47.0722 81.683 46.1338 82.6646 45.4335 83.9543C44.733 85.2443 44.3828 86.7582 44.3828 88.4968C44.3828 90.2633 44.733 91.8055 45.4335 93.1234C46.1338 94.413 47.0722 95.4084 48.2489 96.1096C49.4256 96.7825 50.7287 97.1191 52.1574 97.1191C53.5864 97.1191 54.8891 96.7825 56.0658 96.1096C57.2704 95.4084 58.223 94.413 58.9236 93.1234C59.6238 91.8055 59.9739 90.2774 59.9739 88.5388Z" fill="#FFF9F3"/>
<path d="M82.3642 96.9506H71.0596L82.2802 80.1691V77.0565H66.7728V80.1691H77.8674L66.6888 96.9506V97.8052H82.3642V96.9506Z" fill="#FFF9F3"/>
<path d="M106.112 90.0111C106.196 89.1976 106.238 88.4268 106.238 87.6978C106.238 85.5947 105.776 83.7159 104.851 82.0617C103.955 80.3793 102.666 79.0614 100.985 78.108C99.3036 77.1547 97.3705 76.6781 95.1851 76.6781C92.9439 76.6781 90.9548 77.1688 89.2176 78.1501C87.5087 79.1034 86.1778 80.4775 85.2252 82.2719C84.2726 84.0666 83.7965 86.1556 83.7965 88.5388C83.7965 90.9221 84.2867 93.0252 85.2672 94.8478C85.8979 96.0018 86.6789 96.9875 87.6106 97.8052H102.823C104.262 96.5023 105.246 94.8998 105.776 92.9973H101.657C101.209 94.2869 100.424 95.3244 99.3036 96.1096C98.2112 96.8666 96.8383 97.2452 95.1851 97.2452C93.1681 97.2452 91.445 96.6143 90.0163 95.3526C88.6152 94.0626 87.8447 92.282 87.7049 90.0111H106.112ZM101.321 83.1553C101.965 84.1927 102.288 85.4403 102.288 86.8985H87.7469C87.9428 84.7113 88.7133 83.0009 90.0583 81.7671C91.4309 80.5336 93.0841 79.9165 95.0171 79.9165C96.3618 79.9165 97.5805 80.197 98.6732 80.7579C99.7941 81.2906 100.676 82.0896 101.321 83.1553Z" fill="#FFF9F3"/>
<path d="M25.8359 107.418V107.262L22.9573 106.02H6V107.418H14.0269V133.622H17.851V107.418H25.8359Z" fill="#FFF9F3"/>
<path d="M35.102 111.259C33.8801 111.987 32.9349 113.006 32.2664 114.316V110.573H28.4419V133.622H32.2664V121.088C32.2664 116.433 34.4097 114.106 38.6962 114.106H39.7049V113.245L35.102 111.259Z" fill="#FFF9F3"/>
<path d="M62.9048 123.527C62.9888 122.714 63.0308 121.943 63.0308 121.214C63.0308 119.111 62.5684 117.232 61.6441 115.578C60.7473 113.896 59.4587 112.578 57.7776 111.624C56.0966 110.671 54.1635 110.194 51.9781 110.194L51.8489 110.195L43.5569 113.596C42.9653 114.239 42.4523 114.97 42.0182 115.788C41.0656 117.583 40.5892 119.672 40.5892 122.055C40.5892 124.438 41.0797 126.541 42.0602 128.364C43.0407 130.158 44.3857 131.547 46.0947 132.528C47.8318 133.509 49.7928 134 51.9781 134C54.7237 134 57.0213 133.313 58.8703 131.939C60.7194 130.537 61.9522 128.729 62.5684 126.514H58.45C58.0018 127.803 57.2172 128.841 56.0966 129.626C55.0039 130.383 53.631 130.761 51.9781 130.761C49.9608 130.761 48.238 130.131 46.809 128.869C45.4082 127.579 44.6377 125.798 44.4976 123.527H62.9048ZM58.1137 116.672C58.7581 117.709 59.0803 118.957 59.0803 120.415H44.5396C44.7358 118.228 45.5063 116.517 46.851 115.283C48.2239 114.05 49.8768 113.433 51.8101 113.433C53.1548 113.433 54.3735 113.713 55.4662 114.274C56.5868 114.807 57.4695 115.606 58.1137 116.672Z" fill="#FFF9F3"/>
<path d="M69.8018 123.443L78.837 133.622H84.0482L73.1639 122.055L84.0062 110.573H78.669L69.8018 120.793V107.803L65.9773 106.926V133.622H69.8018V123.443Z" fill="#FFF9F3"/>
<path d="M98.3641 133.622L89.3286 123.443V133.622H85.5044V110.351L89.3286 110.705V120.793L97.4285 111.457L102.274 111.907L92.6906 122.055L103.575 133.622H98.3641Z" fill="#FFF9F3"/>
<path d="M125.918 123.527C126.002 122.714 126.044 121.943 126.044 121.214C126.044 119.111 125.581 117.232 124.657 115.578C124.329 114.962 123.949 114.395 123.515 113.878L107.859 112.425C106.698 113.303 105.756 114.424 105.031 115.788C104.079 117.583 103.603 119.672 103.603 122.055C103.603 124.438 104.093 126.541 105.073 128.364C106.054 130.158 107.399 131.547 109.108 132.528C110.845 133.509 112.806 134 114.991 134C117.737 134 120.034 133.313 121.883 131.939C123.732 130.537 124.965 128.729 125.581 126.514H121.463C121.015 127.803 120.23 128.841 119.11 129.626C118.017 130.383 116.644 130.761 114.991 130.761C112.974 130.761 111.251 130.131 109.822 128.869C108.421 127.579 107.651 125.798 107.511 123.527H125.918ZM121.127 116.672C121.771 117.709 122.093 118.957 122.093 120.415H107.553C107.749 118.228 108.519 116.517 109.864 115.283C111.237 114.05 112.89 113.433 114.823 113.433C116.168 113.433 117.387 113.713 118.479 114.274C119.6 114.807 120.483 115.606 121.127 116.672Z" fill="#FFF9F3"/>
<path d="M135.673 111.246C134.44 111.975 133.487 112.998 132.815 114.316V111.451L128.99 113.404V133.622H132.815V121.088C132.815 116.433 134.958 114.106 139.245 114.106H140.253V110.152C138.46 110.152 136.933 110.517 135.673 111.246Z" fill="#FFF9F3"/>
<circle cx="147.062" cy="127.191" r="6.80895" fill="#FF7E21"/>
<g opacity="0.8" filter="url(#filter0_f_2003_571)">
<circle cx="147.062" cy="127.191" r="4.19541" fill="#FB8A38"/>
</g>
<g opacity="0.8" filter="url(#filter1_f_2003_571)">
<circle cx="147.062" cy="127.191" r="2.68231" fill="#FBC197"/>
</g>
<defs>
<filter id="filter0_f_2003_571" x="141.299" y="121.427" width="11.5269" height="11.5271" filterUnits="userSpaceOnUse" color-interpolation-filters="sRGB">
<feFlood flood-opacity="0" result="BackgroundImageFix"/>
<feBlend mode="normal" in="SourceGraphic" in2="BackgroundImageFix" result="shape"/>
<feGaussianBlur stdDeviation="0.784061" result="effect1_foregroundBlur_2003_571"/>
</filter>
<filter id="filter1_f_2003_571" x="142.812" y="122.941" width="8.50099" height="8.50099" filterUnits="userSpaceOnUse" color-interpolation-filters="sRGB">
<feFlood flood-opacity="0" result="BackgroundImageFix"/>
<feBlend mode="normal" in="SourceGraphic" in2="BackgroundImageFix" result="shape"/>
<feGaussianBlur stdDeviation="0.784061" result="effect1_foregroundBlur_2003_571"/>
</filter>
</defs>
</svg>
